# xmcd
#
# Track frame offsets:
#	150
#	18940
#	38900
#	60115
#	80807
#	98782
#	118992
#	136622
#	155317
#	175330
#	196272
#	213825
#	232732
#	249072
#	269757
#	287032
#
# Disc length: 4039 seconds
#
# Revision: 1
# Processed by: cddbd v1.5.1PL0 Copyright (c) Steve Scherf et al.
# Submitted via: CDex 1.50Beta5
#
DISCID=ce0fc510
DTITLE=Various Artist - AKINA*NAKAMORI(同名專輯)
DYEAR=1900
DGENRE=
TTITLE0=二人靜
TTITLE1=在水中插花
TTITLE2=DEAR  FRIEND
TTITLE3=LIAR
TTITLE4=TATTOO
TTITLE5=難破船
TTITLE6=BLONDE
TTITLE7=TANGO  NOIR
TTITLE8=DESTINE
TTITLE9=SAND  BEIGE-沙漠-
TTITLE10=銀之紙吹雪
TTITLE11=暗地裡哭泣
TTITLE12=十戒(1984)
TTITLE13=北之地方
TTITLE14=禁區
TTITLE15=少女A
EXTD=
EXTT0=
EXTT1=
EXTT2=
EXTT3=
EXTT4=
EXTT5=
EXTT6=
EXTT7=
EXTT8=
EXTT9=
EXTT10=
EXTT11=
EXTT12=
EXTT13=
EXTT14=
EXTT15=
PLAYORDER=
